<svg xmlns="http://www.w3.org/2000/svg" height="682.667" viewBox="0 0 512 512" width="682.667" xmlns:v="https://vecta.io/nano"><path d="M256 0C114.836 0 0 114.836 0 256s114.836 256 256 256 256-114.836 256-256S397.164 0 256 0zm0 0" fill="#f44336"/><path d="M350.273 320.105a21.32 21.32 0 0 1 0 30.168c-4.16 4.16-9.62 6.25-15.086 6.25s-10.922-2.1-15.082-6.25L256 286.164l-64.105 64.1a21.27 21.27 0 0 1-15.082 6.25 21.32 21.32 0 0 1-15.086-36.418L225.836 256l-64.1-64.105a21.32 21.32 0 1 1 30.168-30.168L256 225.836l64.105-64.1a21.32 21.32 0 1 1 30.168 30.168L286.164 256zm0 0" fill="#fafafa"/></svg>