<svg xmlns="http://www.w3.org/2000/svg" viewBox="0 0 455.431 455.431" xmlns:v="https://vecta.io/nano"><path d="M405.493 412.764c-69.7 56.9-287.3 56.9-355.556 0-69.7-56.9-62.578-300.1 0-364.1s292.978-64 355.556 0 69.7 307.2 0 364.1z" fill="#5ca4da"/><path d="M229.138 313.2C166.56 362.988 96.87 388.588 31.448 390c-48.356-82.5-38.4-283.022 18.5-341.333 51.2-52.622 211.9-62.578 304.356-29.867 22.755 93.867-24.178 213.333-125.156 294.4z" fill="#6dafe0"/><path d="M259.004 286.187h-61.156V256.32c0-11.378 1.422-19.9 4.267-24.178 2.844-5.7 8.533-12.8 18.5-22.756l27.022-28.444c4.267-4.267 5.7-11.378 5.7-18.5s-1.422-14.222-7.1-18.5c-4.267-5.7-9.956-7.1-17.067-7.1s-12.8 2.844-17.067 8.533-7.1 14.222-8.533 24.178h-64c2.844-27.022 12.8-48.356 29.867-62.578s36.978-22.756 62.578-22.756 45.5 7.1 61.156 19.9c15.644 14.222 24.178 32.7 24.178 56.9 0 11.378-1.422 18.5-4.267 24.178l-5.7 11.378c-1.422 2.844-4.267 5.7-7.1 9.956l-27.022 27.022c-5.7 5.7-9.956 9.956-11.378 14.222s-2.844 8.533-2.844 15.644v22.757zm-65.422 51.2c0-19.9 15.644-35.556 35.556-35.556s35.556 15.644 35.556 35.556-15.644 35.556-35.556 35.556-35.556-15.645-35.556-35.556z" fill="#fff"/></svg>