<?xml version="1.0" encoding="iso-8859-1"?>
<!-- Generator: Adobe Illustrator 19.0.0, SVG Export Plug-In . SVG Version: 6.00 Build 0)  -->
<svg version="1.1" id="Layer_1" xmlns="http://www.w3.org/2000/svg" xmlns:xlink="http://www.w3.org/1999/xlink" x="0px" y="0px"
	 viewBox="0 0 506.4 506.4" style="enable-background:new 0 0 506.4 506.4;" xml:space="preserve">
<circle style="fill:#ACD9EA;" cx="253.2" cy="253.2" r="249.2"/>
<g>
	<path style="fill:#F4EFEF;" d="M253.2,332.4c-10.8,0-20-8.8-20-19.6v-36c0-10.8,8.8-19.6,20-19.6c28,0,51.2-22.8,51.2-50.8
		s-22.8-50.8-50.8-50.8s-50.8,22.8-50.8,50.8c0,10.8-8.8,19.6-19.6,19.6s-19.6-8.8-19.6-19.6c0-50,40.8-90.4,90.4-90.4
		s90.8,40.8,90.8,90.4c0,43.2-26.8,79.2-70.8,88.4v18.4C273.2,323.6,264,332.4,253.2,332.4z"/>
	<path style="fill:#F4EFEF;" d="M252.4,395.6c-5.2,0-10.4-2-14-6c-3.6-3.6-5.6-8.8-5.6-14s2-10.4,5.6-14s8.8-5.6,14-5.6
		s10.4,2,14,5.6s6,8.8,6,14s-2,10.4-6,14C262.4,393.6,257.6,395.6,252.4,395.6z"/>
</g>
<path d="M253.2,506.4C113.6,506.4,0,392.8,0,253.2S113.6,0,253.2,0s253.2,113.6,253.2,253.2S392.8,506.4,253.2,506.4z M253.2,8
	C118,8,8,118,8,253.2s110,245.2,245.2,245.2s245.2-110,245.2-245.2S388.4,8,253.2,8z"/>
<path d="M249.2,336.4c-13.2,0-24-10.8-24-23.6v-36c0-12.8,12-23.6,26-23.6c26,0,48-21.6,48-46.8c0-26-20.8-46.8-46.4-46.8
	c-25.6,0-46.8,21.2-46.8,46.8c0,13.2-10.8,23.6-23.6,23.6c-13.2,0-23.6-10.8-23.6-23.6c0-52,42.4-94.4,94.4-94.4
	s92.8,41.6,92.8,94.4c0,44.8-29.2,81.2-72.8,91.6v15.2C273.2,325.6,262.4,336.4,249.2,336.4z M252.8,150.8c30,0,54.4,24.8,54.4,54.8
	c0,29.6-25.6,54.8-56,54.8c-8.4,0-18,6.8-18,15.6v36c0,8.8,7.2,15.6,16,15.6s16-7.2,16-15.6v-18.4c0-2,1.2-3.6,3.2-4
	c41.6-8.4,69.6-42.4,69.6-84.4c0-48.4-37.2-86.4-84.8-86.4s-86.4,38.8-86.4,86.4c0,8.8,7.2,15.6,15.6,15.6c8.8,0,15.6-7.2,15.6-15.6
	C198,175.2,222.4,150.8,252.8,150.8z"/>
<path d="M252.4,399.6c-6.4,0-12.4-2.4-16.8-7.2c-4.4-4.4-6.8-10.4-6.8-16.8s2.4-12.4,6.8-16.8c4.4-4.4,10.4-6.8,16.8-6.8
	c6.4,0,12.4,2.4,16.8,6.8c4.4,4.4,6.8,10.8,6.8,16.8c0,6.4-2.4,12.4-6.8,16.8C264.8,397.2,258.4,399.6,252.4,399.6z M252.4,360
	c-4,0-8.4,1.6-11.2,4.8c-2.8,2.8-4.4,6.8-4.4,11.2s1.6,8.4,4.4,11.2c2.8,2.8,7.2,4.8,11.2,4.8s8.4-1.6,11.2-4.8
	c2.8-2.8,4.8-7.2,4.8-11.2s-1.6-8-4.8-11.2C260.4,361.6,256.4,360,252.4,360z"/>
<g>
</g>
<g>
</g>
<g>
</g>
<g>
</g>
<g>
</g>
<g>
</g>
<g>
</g>
<g>
</g>
<g>
</g>
<g>
</g>
<g>
</g>
<g>
</g>
<g>
</g>
<g>
</g>
<g>
</g>
</svg>
