<?xml version="1.0" encoding="iso-8859-1"?>
<!-- Generator: Adobe Illustrator 19.0.0, SVG Export Plug-In . SVG Version: 6.00 Build 0)  -->
<svg version="1.1" id="Capa_1" xmlns="http://www.w3.org/2000/svg" xmlns:xlink="http://www.w3.org/1999/xlink" x="0px" y="0px"
	 viewBox="0 0 512 512" style="enable-background:new 0 0 512 512;" xml:space="preserve">
<path style="fill:#303C42;" d="M496.375,139.958L372.042,15.625C361.969,5.552,348.573,0,334.323,0H177.677
	c-14.25,0-27.646,5.552-37.719,15.625L15.625,139.958C5.552,150.031,0,163.427,0,177.677v156.646
	c0,14.25,5.552,27.646,15.625,37.719l124.333,124.333C150.031,506.448,163.427,512,177.677,512h156.646
	c14.25,0,27.646-5.552,37.719-15.625l124.333-124.333C506.448,361.969,512,348.573,512,334.323V177.677
	C512,163.427,506.448,150.031,496.375,139.958z"/>
<path style="fill:#EE3124;" d="M490.667,334.323c0,8.552-3.333,16.583-9.375,22.635L356.958,481.292
	c-6.052,6.042-14.083,9.375-22.635,9.375H177.677c-8.552,0-16.583-3.333-22.635-9.375L30.708,356.958
	c-6.042-6.052-9.375-14.083-9.375-22.635V177.677c0-8.552,3.333-16.583,9.375-22.635L155.042,30.708
	c6.052-6.042,14.083-9.375,22.635-9.375h156.646c8.552,0,16.583,3.333,22.635,9.375l124.333,124.333
	c6.042,6.052,9.375,14.083,9.375,22.635V334.323z"/>
<g>
	<path style="fill:#FFFFFF;" d="M128,224h21.333c5.896,0,10.667-4.771,10.667-10.667c0-5.896-4.771-10.667-10.667-10.667H128
		c-17.646,0-32,14.354-32,32s14.354,32,32,32c5.885,0,10.667,4.781,10.667,10.667S133.885,288,128,288h-21.333
		C100.771,288,96,292.771,96,298.667c0,5.896,4.771,10.667,10.667,10.667H128c17.646,0,32-14.354,32-32s-14.354-32-32-32
		c-5.885,0-10.667-4.781-10.667-10.667S122.115,224,128,224z"/>
	<path style="fill:#FFFFFF;" d="M245.333,202.667h-64c-5.896,0-10.667,4.771-10.667,10.667c0,5.896,4.771,10.667,10.667,10.667
		h21.333v74.667c0,5.896,4.771,10.667,10.667,10.667c5.896,0,10.667-4.771,10.667-10.667V224h21.333
		c5.896,0,10.667-4.771,10.667-10.667C256,207.438,251.229,202.667,245.333,202.667z"/>
	<path style="fill:#FFFFFF;" d="M384,202.667h-21.333c-5.896,0-10.667,4.771-10.667,10.667v85.333
		c0,5.896,4.771,10.667,10.667,10.667c5.896,0,10.667-4.771,10.667-10.667v-32H384c17.646,0,32-14.354,32-32
		S401.646,202.667,384,202.667z M384,245.333h-10.667V224H384c5.885,0,10.667,4.781,10.667,10.667S389.885,245.333,384,245.333z"/>
	<path style="fill:#FFFFFF;" d="M298.667,202.667c-17.646,0-32,14.354-32,32v42.667c0,17.646,14.354,32,32,32
		c17.646,0,32-14.354,32-32v-42.667C330.667,217.021,316.313,202.667,298.667,202.667z M309.333,277.333
		c0,5.885-4.781,10.667-10.667,10.667c-5.885,0-10.667-4.781-10.667-10.667v-42.667c0-5.885,4.781-10.667,10.667-10.667
		c5.885,0,10.667,4.781,10.667,10.667V277.333z"/>
</g>
<linearGradient id="SVGID_1_" gradientUnits="userSpaceOnUse" x1="-46.1793" y1="639.8364" x2="-23.227" y2="629.1323" gradientTransform="matrix(21.3333 0 0 -21.3333 996.3334 13791.667)">
	<stop  offset="0" style="stop-color:#FFFFFF;stop-opacity:0.2"/>
	<stop  offset="1" style="stop-color:#FFFFFF;stop-opacity:0"/>
</linearGradient>
<path style="fill:url(#SVGID_1_);" d="M496.375,139.958L372.042,15.625C361.969,5.552,348.573,0,334.323,0H177.677
	c-14.25,0-27.646,5.552-37.719,15.625L15.625,139.958C5.552,150.031,0,163.427,0,177.677v156.646
	c0,14.25,5.552,27.646,15.625,37.719l124.333,124.333C150.031,506.448,163.427,512,177.677,512h156.646
	c14.25,0,27.646-5.552,37.719-15.625l124.333-124.333C506.448,361.969,512,348.573,512,334.323V177.677
	C512,163.427,506.448,150.031,496.375,139.958z"/>
<g>
</g>
<g>
</g>
<g>
</g>
<g>
</g>
<g>
</g>
<g>
</g>
<g>
</g>
<g>
</g>
<g>
</g>
<g>
</g>
<g>
</g>
<g>
</g>
<g>
</g>
<g>
</g>
<g>
</g>
</svg>
