<svg width="217" height="197" viewBox="0 0 217 197" fill="none" xmlns="http://www.w3.org/2000/svg">
<path d="M212.533 150.627L135.837 14.9402C129.988 5.6332 119.816 0 108.5 0C97.1839 0 87.012 5.6332 81.1632 14.9402L4.46727 150.627C-1.38156 160.301 -1.50871 171.813 4.21297 181.487C9.93465 191.162 20.2328 196.917 31.8042 196.917H185.196C196.767 196.917 207.066 191.162 212.787 181.487C218.509 171.813 218.381 160.301 212.533 150.627Z" fill="white"/>
<path d="M212.787 181.487C207.066 191.162 196.767 196.917 185.196 196.917H108.5V0C119.816 0 129.988 5.6332 135.837 14.9402L212.533 150.627C218.381 160.301 218.51 171.813 212.787 181.487Z" fill="white"/>
<path d="M201.598 156.872L124.902 21.1857C121.469 15.5525 115.239 12.2461 108.5 12.2461C101.761 12.2461 95.5309 15.5525 92.0979 21.1857L15.402 156.872C11.8418 162.628 11.8418 169.608 15.2757 175.364C18.7087 181.242 24.9381 184.671 31.805 184.671H185.197C192.063 184.671 198.293 181.242 201.726 175.364C205.159 169.608 205.158 162.628 201.598 156.872Z" fill="#DD6B20"/>
<path d="M201.725 175.364C198.292 181.242 192.063 184.671 185.196 184.671H108.5V12.2461C115.239 12.2461 121.469 15.5525 124.902 21.1857L201.598 156.872C205.158 162.628 205.158 169.608 201.725 175.364Z" fill="#DD6B20"/>
<path d="M108.5 172.425C101.491 172.425 95.7853 166.93 95.7853 160.179C95.7853 153.428 101.491 147.933 108.5 147.933C115.509 147.933 121.215 153.428 121.215 160.179C121.215 166.93 115.509 172.425 108.5 172.425ZM121.215 123.441C121.215 130.191 115.509 135.687 108.5 135.687C101.491 135.687 95.7853 130.191 95.7853 123.441V62.2101C95.7853 55.4593 101.491 49.9641 108.5 49.9641C115.509 49.9641 121.215 55.4593 121.215 62.2101V123.441Z" fill="white"/>
<path d="M121.215 160.179C121.215 153.428 115.509 147.933 108.5 147.933V172.425C115.509 172.425 121.215 166.93 121.215 160.179ZM121.215 123.441V62.2101C121.215 55.4593 115.509 49.9641 108.5 49.9641V135.687C115.509 135.687 121.215 130.191 121.215 123.441Z" fill="white"/>
</svg>
