<svg xmlns="http://www.w3.org/2000/svg" width="217" height="197" fill="none" xmlns:v="https://vecta.io/nano"><g fill="#fff"><path d="M212.533 150.627L135.837 14.94C129.988 5.633 119.816 0 108.5 0S87.012 5.633 81.163 14.94L4.467 150.627c-5.85 9.674-5.976 21.186-.254 30.86s16.02 15.43 27.59 15.43h153.392c11.57 0 21.87-5.755 27.59-15.43s5.594-21.186-.254-30.86z"/><path d="M212.787 181.487c-5.72 9.675-16.02 15.43-27.59 15.43H108.5V0c11.316 0 21.488 5.633 27.337 14.94l76.696 135.687c5.848 9.674 5.977 21.186.254 30.86z"/></g><g fill="#dd6b20"><path d="M201.598 156.872L124.902 21.186c-3.433-5.633-9.663-8.94-16.402-8.94s-12.97 3.306-16.402 8.94L15.402 156.872c-3.56 5.756-3.56 12.736-.126 18.492 3.433 5.878 9.662 9.307 16.53 9.307h153.392c6.866 0 13.096-3.43 16.53-9.307 3.433-5.756 3.432-12.736-.128-18.492z"/><path d="M201.725 175.364c-3.433 5.878-9.662 9.307-16.53 9.307H108.5V12.246c6.74 0 12.97 3.306 16.402 8.94l76.696 135.686c3.56 5.756 3.56 12.736.127 18.492z"/></g><g fill="#fff"><path d="M108.5 172.425c-7.01 0-12.715-5.495-12.715-12.246s5.706-12.246 12.715-12.246 12.715 5.495 12.715 12.246-5.706 12.246-12.715 12.246zm12.715-48.984c0 6.75-5.706 12.246-12.715 12.246s-12.715-5.496-12.715-12.246V62.2c0-6.75 5.706-12.246 12.715-12.246s12.715 5.495 12.715 12.246v61.23z"/><path d="M121.215 160.18c0-6.75-5.706-12.246-12.715-12.246v24.492c7.01 0 12.715-5.495 12.715-12.246zm0-36.738V62.2c0-6.75-5.706-12.246-12.715-12.246v85.723c7.01 0 12.715-5.496 12.715-12.246z"/></g></svg>