<svg width="263" height="233" viewBox="0 0 263 233" fill="none" xmlns="http://www.w3.org/2000/svg">
<path d="M170.73 48.911L177.779 60.964L255.939 193.766C267.549 213.489 259.049 229.487 236.866 229.487H26.2273C4.25121 229.487 -4.45628 213.27 7.15371 193.547L110.192 17.7923C121.802 -1.93078 140.669 -1.93078 152.279 17.7923L170.73 48.911Z" fill="#DD6B20"/>
<path d="M134.098 207.887C131.403 207.887 128.707 206.791 126.842 204.6C124.976 202.627 123.732 199.778 123.732 196.93C123.732 194.081 124.768 191.232 126.842 189.26C128.707 187.287 131.403 185.972 134.098 185.972C136.793 185.972 139.488 187.068 141.354 189.26C143.22 191.232 144.464 194.081 144.464 196.93C144.464 199.778 143.427 202.627 141.354 204.6C139.488 206.572 136.793 207.887 134.098 207.887Z" fill="#F4EFEF"/>
<path d="M132.366 171.369C126.768 171.369 122 166.548 122 160.411V81.9573C122 76.0403 126.768 71 132.366 71C137.964 71 142.732 75.8212 142.732 81.9573V160.411C142.732 166.328 137.964 171.369 132.366 171.369Z" fill="#F4EFEF"/>
<path d="M236.819 232.075H26.1808C14.7781 232.075 6.27795 227.912 2.33884 220.241C-1.60026 212.571 -0.563655 202.271 5.44866 192.191L108.487 15.9976C114.5 5.69779 122.585 0 131.5 0C140.208 0 148.293 5.47864 154.098 15.5593L172.342 46.4589L179.391 58.5119L257.551 191.972C263.564 202.052 264.6 212.352 260.661 220.022C256.722 227.912 248.222 232.075 236.819 232.075ZM131.293 4.38291C124.036 4.38291 117.195 9.20412 111.804 18.1891L8.7658 194.382C3.58277 203.148 2.54616 211.695 5.86331 218.05C9.18045 224.405 16.4367 227.692 26.1808 227.692H236.819C246.563 227.692 253.82 224.186 257.137 218.05C260.454 211.914 259.417 203.148 254.234 194.382L176.074 60.9225L169.025 48.8695L150.781 17.9699C145.391 9.20412 138.549 4.38291 131.293 4.38291Z" fill="white"/>
</svg>
