<svg xmlns="http://www.w3.org/2000/svg" height="682.667" viewBox="0 0 512 512" width="682.667" xmlns:v="https://vecta.io/nano"><path d="M512 58.668C512 26.305 485.695 0 453.332 0H58.668C26.305 0 0 26.305 0 58.668v394.664C0 485.695 26.305 512 58.668 512h394.664C485.695 512 512 485.695 512 453.332zm0 0" fill="#4caf50"/><path d="M385.75 171.586c8.34 8.34 8.34 21.82 0 30.164L247.082 340.414c-4.16 4.16-9.62 6.254-15.082 6.254s-10.922-2.094-15.082-6.254l-69.332-69.332c-8.344-8.34-8.344-21.824 0-30.164s21.82-8.344 30.164 0l54.25 54.25 123.586-123.582c8.34-8.344 21.82-8.344 30.164 0zm0 0" fill="#fafafa"/></svg>