<svg width="20" height="24" viewBox="0 0 20 24" fill="none" xmlns="http://www.w3.org/2000/svg">
<path d="M10.4581 11.9976L19.9056 0.660561C20.0315 0.509429 20.0315 0.264445 19.9056 0.113313C19.7796 -0.0377709 19.5755 -0.0377709 19.4495 0.113313L10.002 11.4503L0.554497 0.113313C0.426377 -0.0351585 0.222223 -0.0309012 0.0984571 0.122843C-0.0222453 0.272814 -0.0222453 0.51059 0.0984571 0.660561L9.54597 11.9976L0.0984571 23.3346C-0.0296632 23.4831 -0.0332109 23.7281 0.0905554 23.8819C0.214322 24.0356 0.418475 24.0399 0.546596 23.8913C0.549297 23.8882 0.551917 23.885 0.554497 23.8819L10.002 12.5448L19.4495 23.8819C19.5777 24.0304 19.7818 24.0261 19.9056 23.8724C20.0263 23.7224 20.0263 23.4846 19.9056 23.3346L10.4581 11.9976Z" fill="white"/>
</svg>
