<svg xmlns="http://www.w3.org/2000/svg" viewBox="0 0 455.431 455.431" xmlns:v="https://vecta.io/nano"><path d="M405.493 412.764c-69.69 56.89-287.29 56.89-355.556 0-69.69-56.89-62.578-300.09 0-364.09s292.978-64 355.556 0 69.69 307.2 0 364.09z" fill="#5ca4da"/><path d="M229.138 313.21c-62.578 49.778-132.267 75.378-197.69 76.8-48.356-82.49-38.4-283.022 18.49-341.333 51.2-52.622 211.91-62.578 304.356-29.867 22.755 93.867-24.178 213.333-125.156 294.4z" fill="#6dafe0"/><path d="M259.004 286.187h-61.156V256.32c0-11.378 1.422-19.91 4.267-24.178 2.844-5.69 8.533-12.8 18.49-22.756l27.022-28.444c4.267-4.267 5.69-11.378 5.69-18.49s-1.422-14.222-7.11-18.49c-4.267-5.69-9.956-7.11-17.067-7.11s-12.8 2.844-17.067 8.533-7.11 14.222-8.533 24.178h-64c2.844-27.022 12.8-48.356 29.867-62.578s36.978-22.756 62.578-22.756 45.51 7.11 61.156 19.91c15.644 14.222 24.178 32.71 24.178 56.89 0 11.378-1.422 18.49-4.267 24.178l-5.69 11.378c-1.422 2.844-4.267 5.69-7.11 9.956l-27.022 27.022c-5.69 5.69-9.956 9.956-11.378 14.222s-2.844 8.533-2.844 15.644v22.757zm-65.422 51.2c0-19.91 15.644-35.556 35.556-35.556s35.556 15.644 35.556 35.556-15.644 35.556-35.556 35.556-35.556-15.645-35.556-35.556z" fill="#fff"/></svg>