<svg xmlns="http://www.w3.org/2000/svg" viewBox="0 0 512 512" xmlns:v="https://vecta.io/nano"><path d="M501.46 383.8L320.5 51.4c-13.8-22.8-37.8-36.6-64.5-36.6s-50.7 13.8-64.5 36.6L10.54 383.8C-3.26 407.5-3.56 435.7 9.94 459.4s37.798 37.8 65.1 37.8h361.92c27.3 0 51.6-14.1 65.1-37.8s13.2-51.9-.598-75.6z" fill="#495a79"/><path d="M502.06 459.4c-13.5 23.7-37.798 37.8-65.1 37.8H256V14.8c26.7 0 50.7 13.8 64.5 36.6l180.96 332.4c13.798 23.7 14.1 51.9.598 75.6z" fill="#42516d"/><path d="M475.66 399.1L294.7 66.7C286.6 52.9 271.9 44.8 256 44.8s-30.6 8.1-38.7 21.9L36.34 399.1c-8.4 14.1-8.4 31.2-.298 45.3 8.1 14.4 22.798 22.8 39 22.8h361.92c16.2 0 30.9-8.4 39-22.8 8.1-14.1 8.1-31.2-.3-45.3z" fill="#ffde33"/><path d="M475.96 444.4c-8.1 14.4-22.798 22.8-39 22.8H256V44.8c15.9 0 30.6 8.1 38.7 21.9L475.66 399.1c8.4 14.1 8.4 31.2.3 45.3z" fill="#ffbc33"/><path d="M256 437.2c-16.538 0-30-13.462-30-30s13.462-30 30-30 30 13.462 30 30-13.462 30-30 30zm30-120c0 16.538-13.462 30-30 30s-30-13.462-30-30v-150c0-16.538 13.462-30 30-30s30 13.462 30 30v150z" fill="#495a79"/><path d="M286 407.2c0-16.538-13.462-30-30-30v60c16.538 0 30-13.462 30-30zm0-90v-150c0-16.538-13.462-30-30-30v210c16.538 0 30-13.462 30-30z" fill="#42516d"/></svg>